<?xml version="1.0" encoding="UTF-8"?><svg id="Layer_2" xmlns="http://www.w3.org/2000/svg" viewBox="0 0 24.18 24.53"><defs><style>.cls-1{fill:#2e66e6;}</style></defs><g id="Layer_1-2"><path class="cls-1" d="M6.32,5.26h11.54c.68,0,1.23,.55,1.23,1.23h0c0,1.1,1.33,1.64,2.1,.87l2.63-2.63c.48-.48,.48-1.26,0-1.74L21.19,.36c-.77-.77-2.1-.23-2.1,.87h0c0,.68-.55,1.23-1.23,1.23H3.52c-.68,0-1.23,.55-1.23,1.23v5.94c0,.68,.55,1.23,1.23,1.23h.34c.68,0,1.23-.55,1.23-1.23v-3.14c0-.68,.55-1.23,1.23-1.23Zm11.54,14H6.32c-.68,0-1.23-.55-1.23-1.23h0c0-1.1-1.33-1.64-2.1-.87L.36,19.79c-.48,.48-.48,1.26,0,1.74l2.63,2.63c.77,.77,2.1,.23,2.1-.87h0c0-.68,.55-1.23,1.23-1.23h14.34c.68,0,1.23-.55,1.23-1.23v-5.94c0-.68-.55-1.23-1.23-1.23h-.34c-.68,0-1.23,.55-1.23,1.23v3.14c0,.68-.55,1.23-1.23,1.23Z"/></g></svg>